<svg id="Layer_1" data-name="Layer 1" xmlns="http://www.w3.org/2000/svg" viewBox="0 0 594.89 578.61"><defs><style>.cls-1{fill:#47745b;}.cls-2{fill:#7c4e80;}</style></defs><title>secondary</title><path class="cls-1" d="M420.25,840.38c-7.5,0-16.5,5.7-16.5-106.81,0-148.2,15.6-142.8,20.7-142.8h27.6c11.7,0,15.9,0,30.6,20.1,28.2,38.7,30,60.6,36,60.6,4.5,0,6.3-21.9,38.1-60.6,16.8-20.4,21.3-20.1,33-20.1h23.4c5.1,0,20.7-5.4,20.7,142.8,0,112.51-9,106.81-16.5,106.81H579c-3.6,0-10.8.9-10.8-4.5,0-4.21,17.1-58.21,17.1-136.51,0-6.3.9-43.2-9-43.2-8.7,0-20.1,29.7-23.1,36.9-25.2,61.5-15,89.7-35.1,89.7-25.2,0-15.3-28.2-42-89.7-3-6.6-12.9-36.9-22.2-36.9-9.9,0-9.6,36.9-9.6,43.2,0,78.3,18.9,132.3,18.9,136.51,0,5.4-7.2,4.5-10.8,4.5Z" transform="translate(-403.75 -262)"/><path class="cls-1" d="M678.55,840.38c-14.7,0-15.9,6.29-15.9-99.31,0-102.6,4.8-92.7,14.7-92.7h16.5c12.6,0,12.9.9,12.9,4.5,0,11.1-3.6,22.2-3.6,54.9,0,75.61,11.7,122.11,11.7,124.8,0,9.6-9,7.81-15.9,7.81ZM666,605.17c0-12.9,11.1-20.7,23.1-20.7s23.1,7.8,23.1,20.7-11.1,19.8-23.1,19.8S666,618.07,666,605.17Z" transform="translate(-403.75 -262)"/><path class="cls-1" d="M759.25,840.38c-11.11,0-16.5,9.29-16.5-90,0-83.1-2.41-101.7,6-102h24.89c4.51,0,9.9-1.5,10.2,4.2.61,4.5,1.2,10.2,7.2,10.2,4.5,0,9.61-4.8,15.91-9.6,6.3-4.5,13.5-9.3,21.6-9.3,15.3,0,27.9,13.2,27.9,29.4,0,21-17.1,33.6-26.1,33.6-3.6,0,.6-20.1-20.1-20.1-25.21,0-27,40.5-27,58.5,0,59.7,10.2,84.9,10.2,90.31-.3,4.8-6.91,4.8-10.2,4.8Z" transform="translate(-403.75 -262)"/><path class="cls-1" d="M937.14,715.57c8.7-1.5,15.6-3,15.6-12.9,0-15.3-15.9-23.4-29.1-23.4-30.6,0-26.1,25.8-32.7,25.8-9.6,0-20.1-11.7-20.1-24.6,0-22.2,24.9-36.6,52.5-36.6,9.6,0,50.7-.3,66,41.7,6.3,17.4,6.9,106.2,6.9,116.7,0,13.2,2.4,21,2.4,31.2,0,6.31-28.2,6.91-54.9,6.91-72.3,0-77.4-37.21-77.4-55.21C866.34,747.37,903.54,721.27,937.14,715.57Zm18.6,52.5c0-10.5,1.8-23.1-12.6-23.1-17.7,0-36.3,15-36.3,33.3,0,16.8,14.7,26.7,30.6,26.7,17.7,0,18.3-9,18.3-23.7Z" transform="translate(-403.75 -262)"/><ellipse class="cls-1" cx="183.25" cy="151" rx="152" ry="151"/><ellipse class="cls-2" cx="404.25" cy="151" rx="152" ry="151"/></svg>